<?xml version="1.0"?>

<svg version="1.1" xmlns="http://www.w3.org/2000/svg" xmlns:xlink="http://www.w3.org/1999/xlink" x="0px" y="0px" viewBox="0 0 2200 2200" style="enable-background:new 0 0 2200 2200;" xml:space="preserve">
<g id="Objects">
&#x9;<g>
&#x9;&#x9;<circle style="fill:#1c2b22;" cx="1100" cy="1100" r="858"></circle>
&#x9;&#x9;<circle style="fill:#2f6f4f;" cx="1100" cy="1100" r="820"></circle>
&#x9;&#x9;<path style="fill:#f7f6f3;" d="M1100,554.22c-301.43,0-545.78,244.35-545.78,545.78s244.35,545.78,545.78,545.78&#xA;&#x9;&#x9;&#x9;s545.78-244.35,545.78-545.78S1401.43,554.22,1100,554.22z M1100,1609.33c-281.3,0-509.33-228.03-509.33-509.33&#xA;&#x9;&#x9;&#x9;S818.7,590.67,1100,590.67S1609.33,818.7,1609.33,1100S1381.3,1609.33,1100,1609.33z"></path>
&#x9;&#x9;<path style="fill:#c9a84c;" d="M979.2,287.43l-1.54-36.77c39.96-5.71,80.8-8.66,122.34-8.66s82.38,2.95,122.34,8.66l-1.66,39.7&#xA;&#x9;&#x9;&#x9;L979.2,287.43z"></path>
&#x9;&#x9;<path style="fill:#f7f6f3;" d="M1049.787,507.376l-2.424-29.146c17.307-1.439,34.932-2.169,52.386-2.169&#xA;&#x9;&#x9;&#x9;c15.222,0,30.601,0.555,45.711,1.649l-2.114,29.171c-14.409-1.044-29.078-1.573-43.598-1.573&#xA;&#x9;&#x9;&#x9;C1083.1,505.308,1066.291,506.003,1049.787,507.376z"></path>
&#x9;&#x9;<path style="fill:#f7f6f3;" d="M758.862,606.879l-16.672-24.029c14.269-9.9,29.167-19.344,44.283-28.071&#xA;&#x9;&#x9;&#x9;c13.183-7.611,26.779-14.82,40.412-21.427l12.755,26.32c-13.001,6.301-25.969,13.176-38.543,20.436&#xA;&#x9;&#x9;&#x9;C786.679,588.431,772.469,597.438,758.862,606.879z"></path>
&#x9;&#x9;<path style="fill:#f7f6f3;" d="M556.666,838.513l-26.453-12.474c7.407-15.708,15.588-31.336,24.315-46.452&#xA;&#x9;&#x9;&#x9;c7.611-13.183,15.781-26.224,24.284-38.762l24.206,16.416c-8.109,11.957-15.901,24.395-23.161,36.97&#xA;&#x9;&#x9;&#x9;C571.532,808.629,563.729,823.534,556.666,838.513z"></path>
&#x9;&#x9;<path style="fill:#f7f6f3;" d="M497.376,1140.213l-29.146,2.424c-1.439-17.307-2.169-34.932-2.169-52.386&#xA;&#x9;&#x9;&#x9;c0-15.222,0.555-30.601,1.649-45.711l29.171,2.114c-1.044,14.409-1.573,29.078-1.573,43.598&#xA;&#x9;&#x9;&#x9;C495.308,1106.9,496.003,1123.709,497.376,1140.213z"></path>
&#x9;&#x9;<path style="fill:#f7f6f3;" d="M596.879,1431.138l-24.029,16.672c-9.9-14.269-19.344-29.167-28.071-44.283&#xA;&#x9;&#x9;&#x9;c-7.611-13.183-14.82-26.779-21.427-40.412l26.32-12.755c6.301,13.001,13.176,25.969,20.436,38.543&#xA;&#x9;&#x9;&#x9;C578.431,1403.321,587.438,1417.531,596.879,1431.138z"></path>
&#x9;&#x9;<path style="fill:#f7f6f3;" d="M828.513,1633.334l-12.474,26.453c-15.708-7.407-31.336-15.588-46.452-24.315&#xA;&#x9;&#x9;&#x9;c-13.183-7.611-26.224-15.781-38.762-24.284l16.416-24.206c11.957,8.109,24.395,15.901,36.97,23.161&#xA;&#x9;&#x9;&#x9;C798.629,1618.468,813.534,1626.271,828.513,1633.334z"></path>
&#x9;&#x9;<path style="fill:#f7f6f3;" d="M1130.213,1692.624l2.424,29.146c-17.307,1.439-34.932,2.169-52.386,2.169&#xA;&#x9;&#x9;&#x9;c-15.222,0-30.601-0.555-45.711-1.649l2.114-29.171c14.409,1.044,29.078,1.573,43.598,1.573&#xA;&#x9;&#x9;&#x9;C1096.9,1694.692,1113.709,1693.997,1130.213,1692.624z"></path>
&#x9;&#x9;<path style="fill:#f7f6f3;" d="M1421.138,1593.121l16.672,24.029c-14.269,9.9-29.167,19.344-44.283,28.071&#xA;&#x9;&#x9;&#x9;c-13.183,7.611-26.779,14.82-40.412,21.427l-12.755-26.32c13.001-6.301,25.969-13.176,38.543-20.436&#xA;&#x9;&#x9;&#x9;C1393.321,1611.569,1407.531,1602.562,1421.138,1593.121z"></path>
&#x9;&#x9;<path style="fill:#f7f6f3;" d="M1623.334,1361.487l26.453,12.474c-7.407,15.708-15.588,31.336-24.315,46.452&#xA;&#x9;&#x9;&#x9;c-7.611,13.183-15.781,26.224-24.284,38.762l-24.206-16.416c8.109-11.957,15.901-24.395,23.161-36.97&#xA;&#x9;&#x9;&#x9;C1608.468,1391.371,1616.271,1376.466,1623.334,1361.487z"></path>
&#x9;&#x9;<path style="fill:#f7f6f3;" d="M1682.624,1059.787l29.146-2.424c1.439,17.307,2.169,34.932,2.169,52.386&#xA;&#x9;&#x9;&#x9;c0,15.222-0.555,30.601-1.649,45.711l-29.171-2.114c1.044-14.409,1.573-29.078,1.573-43.598&#xA;&#x9;&#x9;&#x9;C1684.692,1093.1,1683.997,1076.291,1682.624,1059.787z"></path>
&#x9;&#x9;<path style="fill:#f7f6f3;" d="M1583.121,768.862l24.029-16.672c9.9,14.269,19.344,29.167,28.071,44.283&#xA;&#x9;&#x9;&#x9;c7.611,13.183,14.82,26.779,21.427,40.412l-26.32,12.755c-6.301-13.001-13.176-25.969-20.436-38.543&#xA;&#x9;&#x9;&#x9;C1601.569,796.679,1592.562,782.469,1583.121,768.862z"></path>
&#x9;&#x9;<path style="fill:#f7f6f3;" d="M1351.487,566.666l12.474-26.453c15.708,7.407,31.336,15.588,46.452,24.315&#xA;&#x9;&#x9;&#x9;c13.183,7.611,26.224,15.781,38.762,24.284l-16.416,24.206c-11.957-8.109-24.395-15.901-36.97-23.161&#xA;&#x9;&#x9;&#x9;C1381.371,581.532,1366.466,573.729,1351.487,566.666z"></path>
&#x9;&#x9;<path style="fill:#f7f6f3;" d="M1220.68,290.36l-5.58,133.26c-37.42-6.33-75.88-9.62-115.1-9.62s-77.68,3.29-115.1,9.62&#xA;&#x9;&#x9;&#x9;l-5.7-136.19c36.23-4.9,73.22-7.43,110.8-7.43C1134.48,280,1178.13,283.54,1220.68,290.36z"></path>
&#x9;&#x9;<path style="fill:#c9a84c;" d="M335.894,798.331L303.28,781.28c15.035-37.461,32.9-74.305,53.67-110.28&#xA;&#x9;&#x9;&#x9;s43.745-69.868,68.67-101.62l33.551,21.288L335.894,798.331z"></path>
&#x9;&#x9;<path style="fill:#f7f6f3;" d="M459.171,590.668l112.617,71.462c-24.192,29.242-46.271,60.904-65.881,94.87&#xA;&#x9;&#x9;&#x9;c-19.61,33.966-35.991,68.918-49.219,104.49l-120.794-63.159c13.871-33.826,30.175-67.125,48.965-99.671&#xA;&#x9;&#x9;&#x9;C407.099,660.139,431.99,624.107,459.171,590.668z"></path>
&#x9;&#x9;<path style="fill:#c9a84c;" d="M456.694,1610.901l-31.074,19.719c-24.925-31.751-47.9-65.645-68.67-101.62&#xA;&#x9;&#x9;&#x9;s-38.635-72.818-53.67-110.28l35.211-18.412L456.694,1610.901z"></path>
&#x9;&#x9;<path style="fill:#f7f6f3;" d="M338.491,1400.308l118.197-61.798c13.228,35.572,29.609,70.524,49.219,104.49&#xA;&#x9;&#x9;&#x9;c19.61,33.965,41.689,65.628,65.881,94.87l-115.094,73.031c-22.358-28.926-43.045-59.695-61.835-92.241&#xA;&#x9;&#x9;&#x9;C372.619,1480.139,353.86,1440.567,338.491,1400.308z"></path>
&#x9;&#x9;<path style="fill:#c9a84c;" d="M1220.8,1912.57l1.54,36.77c-39.96,5.71-80.8,8.66-122.34,8.66c-41.54,0-82.38-2.95-122.34-8.66&#xA;&#x9;&#x9;&#x9;l1.66-39.7L1220.8,1912.57z"></path>
&#x9;&#x9;<path style="fill:#f7f6f3;" d="M979.32,1909.64l5.58-133.26c37.42,6.33,75.88,9.62,115.1,9.62s77.68-3.29,115.1-9.62l5.7,136.19&#xA;&#x9;&#x9;&#x9;c-36.23,4.9-73.22,7.43-110.8,7.43C1065.52,1920,1021.87,1916.46,979.32,1909.64z"></path>
&#x9;&#x9;<path style="fill:#c9a84c;" d="M1864.106,1401.669l32.614,17.051c-15.035,37.461-32.9,74.305-53.67,110.28&#xA;&#x9;&#x9;&#x9;s-43.745,69.868-68.67,101.62l-33.551-21.288L1864.106,1401.669z"></path>
&#x9;&#x9;<path style="fill:#f7f6f3;" d="M1740.829,1609.332l-112.617-71.462c24.192-29.242,46.271-60.904,65.881-94.87&#xA;&#x9;&#x9;&#x9;s35.991-68.918,49.219-104.49l120.794,63.159c-13.872,33.826-30.176,67.125-48.965,99.671&#xA;&#x9;&#x9;&#x9;C1792.901,1539.861,1768.01,1575.893,1740.829,1609.332z"></path>
&#x9;&#x9;<path style="fill:#c9a84c;" d="M1743.306,589.099l31.074-19.719c24.925,31.751,47.9,65.645,68.67,101.62&#xA;&#x9;&#x9;&#x9;s38.635,72.818,53.67,110.28l-35.211,18.412L1743.306,589.099z"></path>
&#x9;&#x9;<path style="fill:#f7f6f3;" d="M1861.509,799.692l-118.197,61.798c-13.228-35.572-29.609-70.524-49.219-104.49&#xA;&#x9;&#x9;&#x9;s-41.689-65.628-65.881-94.87l115.094-73.031c22.359,28.926,43.045,59.695,61.835,92.241&#xA;&#x9;&#x9;&#x9;C1827.381,719.861,1846.14,759.433,1861.509,799.692z"></path>
&#x9;&#x9;<path style="fill:#f7f6f3;" d="M1278.219,1110.236c-27.696-24.617-69.51-42.811-125.436-54.59l-31.71-6.637V909.995&#xA;&#x9;&#x9;&#x9;c11.121,1.305,21.232,3.62,30.305,6.969c14.852,5.488,26.756,13.447,35.725,23.883c8.962,10.436,14.65,23.419,17.059,38.935&#xA;&#x9;&#x9;&#x9;l0.402,3.613h107.573l-0.803-7.225c-2.677-32.915-13.046-61.144-31.107-84.695c-18.063-23.544-42.548-41.545-73.457-53.988&#xA;&#x9;&#x9;&#x9;c-25.153-10.127-53.722-16.131-85.698-18.016v-67.28h-40.139v67.078c-34.021,1.68-64.537,8.279-91.518,19.824&#xA;&#x9;&#x9;&#x9;c-31.578,13.516-56.264,32.451-74.057,56.797c-17.8,24.354-26.693,53.123-26.693,86.301v0.401&#xA;&#x9;&#x9;&#x9;c0,42.548,13.579,76.604,40.741,102.155c27.157,25.558,67.636,44.091,121.423,55.594l30.104,6.234v143.73&#xA;&#x9;&#x9;&#x9;c-14.638-1.298-27.354-3.916-38.133-7.87c-16.056-5.884-28.436-14.112-37.129-24.686c-8.7-10.568-14.388-22.679-17.06-36.327&#xA;&#x9;&#x9;&#x9;l-0.803-4.414H880.235l0.401,6.02c2.409,33.184,13.108,61.615,32.111,85.297c18.998,23.682,44.556,41.745,76.667,54.189&#xA;&#x9;&#x9;&#x9;c27.002,10.462,57.516,16.509,91.518,18.174v67.122h40.139v-67.181c34.274-1.812,65.19-8.24,92.723-19.32&#xA;&#x9;&#x9;&#x9;c32.914-13.245,58.804-32.374,77.67-57.399c18.866-25.018,28.299-55.324,28.299-90.917v-0.803&#xA;&#x9;&#x9;&#x9;C1319.765,1168.839,1305.916,1134.859,1278.219,1110.236z M1019.72,1014.704c-12.444-10.969-18.665-24.617-18.665-40.943v-0.401&#xA;&#x9;&#x9;&#x9;c0-12.042,3.675-22.879,11.039-32.513c7.356-9.634,18.263-17.392,32.713-23.281c10.279-4.185,22.326-6.876,36.126-8.086v131.07&#xA;&#x9;&#x9;&#x9;C1052.189,1033.944,1031.771,1025.333,1019.72,1014.704z M1207.374,1224.233c0,13.114-3.613,24.685-10.838,34.72&#xA;&#x9;&#x9;&#x9;c-7.225,10.035-18.402,17.932-33.517,23.682c-11.372,4.33-25.356,7.027-41.946,8.099v-135.813&#xA;&#x9;&#x9;&#x9;c33.2,7.393,55.814,16.316,67.836,26.764c12.306,10.706,18.465,24.623,18.465,41.745V1224.233z"></path>
&#x9;</g>
</g>
</svg>